<svg xmlns="http://www.w3.org/2000/svg" width="18" height="18" viewBox="0 0 18 18"><g transform="translate(-50.42 -206)"><circle cx="9" cy="9" r="9" transform="translate(50.42 206)" fill="#ffb75f"/><g transform="translate(49.879 207.968)"><g transform="translate(7.02 0.976)"><path d="M7.535,5.6V3.088a2.047,2.047,0,0,1,.525-1.359,2.015,2.015,0,0,1,1.8-.74,2.1,2.1,0,0,1,1.832,1.68,1.963,1.963,0,0,1,.047.42V8.263a.241.241,0,0,0,.047.142A2.624,2.624,0,1,1,7.3,11.1a2.593,2.593,0,0,1,0-2.357,3.454,3.454,0,0,1,.21-.352.226.226,0,0,0,.021-.142Zm3.149.236V3.088a1.018,1.018,0,0,0-.577-.95,1.008,1.008,0,0,0-1.1.094,1.05,1.05,0,0,0-.425.887V8.552a.373.373,0,0,1-.1.283,1.512,1.512,0,0,0-.42,1.3,1.594,1.594,0,0,0,3.149-.493,1.648,1.648,0,0,0-.451-.866.2.2,0,0,1-.058-.142C10.684,7.7,10.684,6.762,10.684,5.833Z" transform="translate(-7.02 -0.976)" fill="#fff"/><path d="M11.572,11.86V13.2a.11.11,0,0,0,.058.1,1.065,1.065,0,1,1-1.134,0,.11.11,0,0,0,.058-.1V10.516a.509.509,0,1,1,1.018,0Z" transform="translate(-8.434 -5.255)" fill="#fff"/></g></g></g></svg>