<svg xmlns="http://www.w3.org/2000/svg" width="18" height="18" viewBox="0 0 18 18"><g transform="translate(-5399.42 531)"><g transform="translate(9 34)"><circle cx="9" cy="9" r="9" transform="translate(5390.42 -565)" fill="#ff75fa"/></g><g transform="translate(5400.925 -531)"><g transform="translate(1.275 5)"><path d="M13.046,8.595h0V8.561l-.078-.116c-.072-.1-.172-.239-.3-.4A9.109,9.109,0,0,0,11.52,6.82,6.779,6.779,0,0,0,7.027,5,6.779,6.779,0,0,0,2.589,6.8,9.109,9.109,0,0,0,1.44,8.023c-.128.166-.227.305-.3.4l-.078.116v.033h0L.83,8.883l.178.3h0v.033l.078.116c.072.1.172.239.3.4a9.109,9.109,0,0,0,1.2,1.226,6.779,6.779,0,0,0,4.438,1.8,6.779,6.779,0,0,0,4.466-1.8,9.109,9.109,0,0,0,1.148-1.22c.128-.166.227-.305.3-.4l.078-.116V9.188h0L13.2,8.9Zm-1.281.466a7.966,7.966,0,0,1-1,1.071,5.658,5.658,0,0,1-3.733,1.526,5.658,5.658,0,0,1-3.733-1.526,8.449,8.449,0,0,1-1.01-1.071L2.15,8.883l.133-.178a8.449,8.449,0,0,1,1.01-1.071A5.658,5.658,0,0,1,7.027,6.109,5.658,5.658,0,0,1,10.76,7.635a7.966,7.966,0,0,1,1,1.071c.055.067.1.122.139.178S11.82,8.994,11.764,9.061Z" transform="translate(-0.83 -5)" fill="#fff"/><circle cx="1.664" cy="1.664" r="1.664" transform="translate(4.532 2.219)" fill="#fff"/></g></g></g></svg>