<svg xmlns="http://www.w3.org/2000/svg" width="18" height="18" viewBox="0 0 18 18"><g transform="translate(-101.42 -338)"><g transform="translate(51 132)"><circle cx="9" cy="9" r="9" transform="translate(50.42 206)" fill="#c460ef"/></g><g transform="translate(104.007 340.485)"><path d="M6.724,11.743a5.139,5.139,0,0,1-3.617-1.395A4.981,4.981,0,0,1,1.574,7.416a5.007,5.007,0,0,1,.107-2.11.066.066,0,0,0-.031-.087A1.742,1.742,0,0,1,.992,3.676,1.763,1.763,0,0,1,2.259,2.143a.153.153,0,0,0,.092-.107A2,2,0,0,1,3.5,1.116a1.834,1.834,0,0,1,1.814.409.582.582,0,0,1,.1.1.1.1,0,0,0,.128.036,5.017,5.017,0,0,1,3.418.465A5.012,5.012,0,0,1,11.21,4.381,4.869,4.869,0,0,1,11.72,6.23v.613a.153.153,0,0,0,.031.092,2,2,0,0,1,0,2.6,1.824,1.824,0,0,1-1.425.674.169.169,0,0,0-.128.051,5.068,5.068,0,0,1-2.733,1.41A3.025,3.025,0,0,1,6.724,11.743Zm-.112-9.2.056.061A1.742,1.742,0,0,1,7.1,4.187,1.783,1.783,0,0,1,4.742,5.52a.128.128,0,0,0-.087,0,1.86,1.86,0,0,1-1.19,0,.153.153,0,0,0-.107,0,1.8,1.8,0,0,1-.633.092c-.056,0-.077,0-.092.061a4.1,4.1,0,0,0,3.724,5.048,4.046,4.046,0,0,0,2.044-.4l.209-.112-.347-.1a.235.235,0,0,0-.133,0,1.834,1.834,0,0,1-1.946-.434A1.921,1.921,0,0,1,5.59,8.013,1.957,1.957,0,0,1,6.964,6.348a.1.1,0,0,0,.072-.056,2.554,2.554,0,0,1,.618-.741,1.921,1.921,0,0,1,1.671-.393,2.1,2.1,0,0,1,1.262.884l.051.072A4.087,4.087,0,0,0,6.612,2.547ZM10.29,9.188a.914.914,0,0,0,.48-.123A.96.96,0,0,0,11.2,8.044a.894.894,0,0,0-.69-.736,2.314,2.314,0,0,0-.378-.041c-.036,0-.051,0-.061-.046A1.522,1.522,0,0,0,10,7.032a1.65,1.65,0,0,0-.4-.633.94.94,0,0,0-1.022-.2,1.1,1.1,0,0,0-.547.511c-.092.163-.153.337-.23.511a.082.082,0,0,1-.082.066,2.222,2.222,0,0,0-.45.066.96.96,0,0,0-.511,1.384.863.863,0,0,0,1.17.363l.255-.148a.1.1,0,0,1,.066,0l.245.138a.869.869,0,0,0,.777.041,2.651,2.651,0,0,0,.337-.179.072.072,0,0,1,.077,0l.225.138a.853.853,0,0,0,.347.1ZM6.1,3.834a.766.766,0,0,0-.639-.777.914.914,0,0,0-.235,0,.187.187,0,0,1-.2-.158,1.359,1.359,0,0,0-.291-.511.874.874,0,0,0-.812-.307.92.92,0,0,0-.659.465,3.265,3.265,0,0,0-.2.45.123.123,0,0,1-.112.061,2.238,2.238,0,0,0-.255,0,.766.766,0,1,0,.46,1.43c.077-.041.143-.087.22-.123a.087.087,0,0,1,.072,0l.194.1a.8.8,0,0,0,.8,0L4.66,4.35a.077.077,0,0,1,.092,0c.072.041.138.082.215.118A.761.761,0,0,0,6.1,3.834Z" fill="#fff"/></g></g></svg>