<svg xmlns="http://www.w3.org/2000/svg" width="18" height="18" viewBox="0 0 18 18"><g transform="translate(-187.42 -206)"><path d="M9,0A9,9,0,1,1,0,9,9,9,0,0,1,9,0Z" transform="translate(187.42 206)" fill="#879fff"/><g transform="translate(190.3 209.002)"><g transform="translate(2 0.997)"><path d="M7.6,5.379a2.452,2.452,0,1,0-3.024,0A4.086,4.086,0,0,0,2,9.171V9.58a.409.409,0,1,0,.817,0V9.171a3.269,3.269,0,1,1,6.538,0V9.58a.409.409,0,1,0,.817,0V9.171A4.086,4.086,0,0,0,7.6,5.379ZM4.452,3.45A1.635,1.635,0,1,1,6.086,5.085,1.635,1.635,0,0,1,4.452,3.45Z" transform="translate(-2 -0.997)" fill="#fff" fill-rule="evenodd"/></g></g></g></svg>