<svg xmlns="http://www.w3.org/2000/svg" width="18" height="18" viewBox="0 0 18 18"><g transform="translate(-5390.42 565)"><circle cx="9" cy="9" r="9" transform="translate(5390.42 -565)" fill="#ff75fa"/><path d="M8.008,5.159h-.69V2.527a.527.527,0,1,0-1.053,0V5.159h-.69A4.576,4.576,0,0,0,1,9.735a.69.69,0,0,0,.69.69h3a2.106,2.106,0,1,0,4.212,0h3a.69.69,0,0,0,.69-.69A4.576,4.576,0,0,0,8.008,5.159ZM6.792,11.478a1.053,1.053,0,0,1-1.053-1.053H7.845A1.053,1.053,0,0,1,6.792,11.478Zm1.5-2.106H2.053a3.517,3.517,0,0,1,3.5-3.159H7.987a3.517,3.517,0,0,1,3.544,3.159Z" transform="translate(5392.5 -564)" fill="#fff" fill-rule="evenodd"/></g></svg>