<svg xmlns="http://www.w3.org/2000/svg" width="18" height="18" viewBox="0 0 18 18"><g transform="translate(-138.501 -333)"><g transform="translate(-0.5)"><g transform="translate(-48.12 127)"><path d="M9,0A9,9,0,1,1,0,9,9,9,0,0,1,9,0Z" transform="translate(187.12 206)" fill="#ffa387"/></g></g><g transform="translate(141 335)"><g transform="translate(2 2)"><path d="M3.366,11.1H9.738A1.366,1.366,0,0,0,11.1,9.738V7.007A1.366,1.366,0,0,0,9.738,5.642h-.91V5.186h.91A1.366,1.366,0,0,0,11.1,3.821V3.366A1.366,1.366,0,0,0,9.738,2H3.366A1.366,1.366,0,0,0,2,3.366v.455A1.366,1.366,0,0,0,3.366,5.186h.91v.455h-.91A1.366,1.366,0,0,0,2,7.007V9.738A1.366,1.366,0,0,0,3.366,11.1Zm0-6.828a.455.455,0,0,1-.455-.455V3.366a.455.455,0,0,1,.455-.455H9.738a.455.455,0,0,1,.455.455v.455a.455.455,0,0,1-.455.455Zm4.552.91v.455H5.186V5.186ZM2.91,7.007a.455.455,0,0,1,.455-.455H9.738a.455.455,0,0,1,.455.455V9.738a.455.455,0,0,1-.455.455H3.366a.455.455,0,0,1-.455-.455Z" transform="translate(-2 -2)" fill="#fff" fill-rule="evenodd"/><circle cx="0.455" cy="0.455" r="0.455" transform="translate(1.366 5.828)" fill="#fff"/><circle cx="0.455" cy="0.455" r="0.455" transform="translate(3.186 5.828)" fill="#fff"/><circle cx="0.455" cy="0.455" r="0.455" transform="translate(5.007 5.828)" fill="#fff"/><circle cx="0.455" cy="0.455" r="0.455" transform="translate(6.828 5.828)" fill="#fff"/></g></g></g></svg>