<svg xmlns="http://www.w3.org/2000/svg" width="18" height="18" viewBox="0 0 18 18"><g transform="translate(-346.42 -206)"><circle cx="9" cy="9" r="9" transform="translate(346.42 206)" fill="#37e39f"/><g transform="translate(348.5 207.483)"><path d="M2.414,6.131H7.827a.26.26,0,0,0,.068,0A1.561,1.561,0,1,0,6.255,5.09H2.414A.479.479,0,0,0,2,5.61a.479.479,0,0,0,.416.52ZM7.723,4.049a.52.52,0,1,1-.52.52A.52.52,0,0,1,7.723,4.049Z" transform="translate(-0.478)" fill="#fff" fill-rule="evenodd"/><path d="M10.246,15H4.52a.52.52,0,0,0,0,1.041H8.778A1.561,1.561,0,1,0,10.246,15Zm0,2.082a.52.52,0,1,1,.52-.52A.52.52,0,0,1,10.246,17.082Z" transform="translate(-1.439 -5.746)" fill="#fff" fill-rule="evenodd"/><path d="M10.889,7A1.561,1.561,0,0,0,9.421,9.082H1.52a.52.52,0,0,0,0,1.041h9.369a1.561,1.561,0,0,0,0-3.123Zm0,2.082a.52.52,0,1,1,.52-.52A.52.52,0,0,1,10.889,9.082Z" transform="translate(0 -1.91)" fill="#fff" fill-rule="evenodd"/></g></g></svg>