<svg xmlns="http://www.w3.org/2000/svg" width="32" height="32" viewBox="0 0 32 32"><g transform="translate(-31.42 -877)"><g transform="translate(31.42 877)" fill="#fff" stroke="#d9d9d9" stroke-width="1"><circle cx="16" cy="16" r="16" stroke="none"/><circle cx="16" cy="16" r="15.5" fill="none"/></g><g transform="translate(38.001 883.016)"><path d="M4.088,16.027a2.957,2.957,0,0,0,4.153.2l.446-.445A2.907,2.907,0,0,0,8.649,11.8a12.59,12.59,0,0,1,1.423-1.751A13.478,13.478,0,0,1,11.81,8.617a2.918,2.918,0,0,0,4,.054l.446-.445a2.945,2.945,0,0,0-.2-4.147l-.769-.768a2.31,2.31,0,0,0-2.461-.5A19.1,19.1,0,0,0,6.811,6.8a19.064,19.064,0,0,0-3.969,6.028,2.3,2.3,0,0,0,.5,2.457Zm.177-2.619c.115-.276.285-.668.515-1.136.077-.154.169-.315.262-.491A17,17,0,0,1,7.9,7.88,16.446,16.446,0,0,1,9.956,6.167c.431-.307.861-.576,1.261-.814s.769-.415,1.077-.584c.469-.23.861-.4,1.138-.514a.716.716,0,0,1,.769.161l.769.768a1.411,1.411,0,0,1,.192,1.973l-.446.445a1.417,1.417,0,0,1-1.977-.2l-.731-.768a12.021,12.021,0,0,0-1.154.768A13.678,13.678,0,0,0,8.987,8.939,16.128,16.128,0,0,0,6.68,12.011l.708.706a1.411,1.411,0,0,1,.2,1.973l-.446.445a1.417,1.417,0,0,1-1.977-.192L4.4,14.176a.713.713,0,0,1-.131-.768Z" fill="#d9d9d9"/></g></g></svg>