<svg xmlns="http://www.w3.org/2000/svg" width="90" height="22" viewBox="0 0 90 22"><g transform="translate(-262 -1521)"><rect width="90" height="22" rx="11" transform="translate(262 1521)" fill="#fcfcfc"/><g transform="translate(236.563 1586.459) rotate(-90)"><path d="M8.6,2.13A4.035,4.035,0,0,0,5.511,8.758L3.584,10.68A.506.506,0,1,0,4.3,11.4L6.243,9.439a3.99,3.99,0,0,0,2.351.762,4.035,4.035,0,1,0,0-8.071Zm0,7.062A3.027,3.027,0,1,1,11.63,6.165,3.027,3.027,0,0,1,8.6,9.192Z" transform="translate(45.967 31)" fill="#5a35f4" fill-rule="evenodd"/></g></g></svg>