<svg xmlns="http://www.w3.org/2000/svg" width="116" height="30" viewBox="0 0 116 30"><g transform="translate(-73 -837)"><text transform="translate(73 850)" fill="#14172c" font-size="14" font-family="Rubik-Medium, Rubik" font-weight="500"><tspan x="0" y="0">Hotel Notting Hill</tspan></text><text transform="translate(145 864)" fill="#9a9cb8" font-size="10" font-family="Rubik-Regular, Rubik"><tspan x="0" y="0">(46)</tspan></text><g transform="translate(0 -1)"><path d="M512.193,1638.648l-3.355,2.326.985,3.78-3.26-2.283-3.47,2.162,1.34-3.738-3.129-2.443,4.088-.027,1.536-3.672,1.186,3.721Z" transform="translate(-400.543 -777)" fill="#ffb400"/><path d="M496.812,1638.648l-3.355,2.326.985,3.78-3.26-2.283-3.47,2.162,1.34-3.738-3.129-2.443,4.088-.027,1.536-3.672,1.186,3.721Z" transform="translate(-398.543 -777)" fill="#ffb400"/><path d="M481.432,1638.648l-3.355,2.326.985,3.78-3.26-2.283-3.47,2.162,1.34-3.738-3.129-2.443,4.088-.027,1.536-3.672,1.186,3.721Z" transform="translate(-396.543 -777)" fill="#ffb400"/><path d="M527.572,1638.648l-3.355,2.326.985,3.78-3.26-2.283-3.47,2.162,1.34-3.738-3.129-2.443,4.088-.027,1.536-3.672,1.186,3.721Z" transform="translate(-402.543 -777)" fill="#e5e5e5"/><path d="M542.953,1638.648l-3.355,2.326.985,3.78-3.26-2.283-3.47,2.162,1.34-3.738-3.129-2.443,4.088-.027,1.536-3.672,1.186,3.721Z" transform="translate(-404.543 -777)" fill="#e5e5e5"/></g></g></svg>