<svg xmlns="http://www.w3.org/2000/svg" width="43" height="43" viewBox="0 0 43 43"><g transform="translate(-29.42 -1935)"><circle cx="21.5" cy="21.5" r="21.5" transform="translate(29.42 1935)" fill="#ff5f5f"/><g transform="translate(38.954 1942.79)"><path d="M21.77,21.58A4.82,4.82,0,0,0,19,17.28V12.05a7.17,7.17,0,0,0-6.12-7.21,7,7,0,0,0-7.88,7v5.27a4.8,4.8,0,0,0-3.27,4.52A1.19,1.19,0,0,0,3,22.79H20.58a1.2,1.2,0,0,0,1.19-1.21ZM11,6.89a5,5,0,0,1,6,4.9v5H7V12a5.12,5.12,0,0,1,4-5.11ZM3.89,20.79a2.8,2.8,0,0,1,2.69-2H17a2.81,2.81,0,0,1,2.69,2Z" fill="#fff" fill-rule="evenodd"/><path d="M13,3.21v-1a1,1,0,1,0-2,0v1a1,1,0,0,0,2,0Z" fill="#fff" fill-rule="evenodd"/><path d="M4.18,5A1,1,0,0,0,5.6,3.59l-.71-.71A1,1,0,0,0,3.47,4.29Z" fill="#fff" fill-rule="evenodd"/><path d="M1.78,9.4l1,.26A1,1,0,0,0,3.3,7.73l-1-.26A1,1,0,0,0,1.78,9.4Z" fill="#fff" fill-rule="evenodd"/><path d="M21.25,9.73l1-.26a1,1,0,0,0-.52-1.93l-1,.26a1,1,0,0,0,.52,1.93Z" fill="#fff" fill-rule="evenodd"/><path d="M18.89,5l.71-.71a1,1,0,1,0-1.42-1.41l-.71.71A1,1,0,1,0,18.89,5Z" fill="#fff" fill-rule="evenodd"/></g></g></svg>