<svg xmlns="http://www.w3.org/2000/svg" width="17" height="17" viewBox="0 0 17 17"><g transform="translate(-23.5 -610)"><circle cx="8.5" cy="8.5" r="8.5" transform="translate(23.5 610)" fill="#37e39f"/><g transform="translate(24 608.5)"><g transform="translate(2 7)"><path d="M5.672,13a.6.6,0,0,0,.6-.6V10.432h3.6V12.4a.6.6,0,1,0,1.2,0V10.432h.6V11.2a.6.6,0,1,0,1.2,0v-.768H13.4a.6.6,0,0,0,0-1.2h-.528V8.8a.6.6,0,1,0-1.2,0v.432h-.6V7.6a.6.6,0,0,0-1.2,0V9.232h-3.6V7.6a.6.6,0,0,0-1.2,0V9.232h-.6V8.8a.6.6,0,1,0-1.2,0v.432H2.6a.6.6,0,1,0,0,1.2h.672V11.2a.6.6,0,1,0,1.2,0v-.768h.6V12.4A.6.6,0,0,0,5.672,13Z" transform="translate(-2 -7)" fill="#fff" fill-rule="evenodd"/></g></g></g></svg>