<svg xmlns="http://www.w3.org/2000/svg" xmlns:xlink="http://www.w3.org/1999/xlink" width="94.581" height="121.209" viewBox="0 0 94.581 121.209"><defs><linearGradient id="a" y1="0.466" x2="1" y2="0.471" gradientUnits="objectBoundingBox"><stop offset="0" stop-color="#8160ef"/><stop offset="1" stop-color="#5927ff"/></linearGradient></defs><g transform="translate(-230.419 -364.524)"><g transform="translate(122 199.923)"><g transform="translate(108.419 191.225)"><path d="M38.074,322.171a19.24,19.24,0,0,1-5.044,8.758c-5.765,5.709-27.092,12.514-29.476,13.235a2.768,2.768,0,0,1-2.716-.721,2.834,2.834,0,0,1-.721-2.772c.721-2.328,7.58-23.6,13.29-29.365a19.245,19.245,0,0,1,8.758-5.044l7.927,7.927Z" transform="translate(-0.012 -249.684)" fill="#ffe470"/><g transform="translate(0.827 62.786)"><path d="M33.74,349.172l7.982,7.982a19.24,19.24,0,0,1-5.044,8.758c-5.765,5.71-27.092,12.514-29.476,13.235a2.768,2.768,0,0,1-2.716-.721Z" transform="translate(-4.486 -347.453)" fill="#ffd400"/><path d="M112.6,344.579l-7.816,7.871a2.977,2.977,0,0,1-1.94.776,3.008,3.008,0,0,1-2-.776v-.055a2.777,2.777,0,0,1,0-3.88l7.871-7.816a2.615,2.615,0,0,1,3.825,0h.055A2.68,2.68,0,0,1,112.6,344.579Z" transform="translate(-82.399 -339.867)" fill="#ffd400"/></g><path d="M116.081,344.369a2.68,2.68,0,0,1,0,3.88l-7.816,7.871a2.977,2.977,0,0,1-1.94.776,3.008,3.008,0,0,1-2-.776v-.055l11.7-11.7Z" transform="translate(-85.059 -280.751)" fill="#fdbf00"/><path d="M56.659,147.547c-19.684,0-25.9,16.641-26.394,17.2a2.773,2.773,0,0,0,2.474,4.022l17.907,1.583,9.427-22.8H56.659Z" transform="translate(-24.433 -120.29)" fill="#ff7816"/><path d="M241.013,327.4l1.342,17.7a2.774,2.774,0,0,0,4.022,2.474c.555-.5,17.2-6.828,17.2-26.394v-3.413Z" transform="translate(-196.491 -259.06)" fill="#ff4b00"/><path d="M128.276,280.514c-2.938,1.5-5.876,2.938-8.647,4.324a2.791,2.791,0,0,1-3.215-.5l-15.631-15.631a2.79,2.79,0,0,1-.5-3.215c1.386-2.772,2.827-5.71,4.323-8.647.887-1.718,7.317,2.106,8.2.333l15.132,15.132C126.169,273.2,129.994,279.627,128.276,280.514Z" transform="translate(-81.511 -209.025)" fill="#ff9f00"/><path d="M166.315,317.505c-2.938,1.5-5.876,2.938-8.647,4.324a2.791,2.791,0,0,1-3.215-.5l-7.815-7.815,11.807-11.751,7.539,7.539C164.208,310.188,168.033,316.618,166.315,317.505Z" transform="translate(-119.55 -246.016)" fill="#ff7816"/><path d="M194.209,37.734a49.47,49.47,0,0,1-13.969,24c-8.148,7.871-21.175,14.744-31.54,19.955L136.894,69.884,125.032,58.022c5.211-10.366,12.084-23.447,19.955-31.54a49.473,49.473,0,0,1,24-13.969l5.6,2.051a17.795,17.795,0,0,0,17.572,17.571Z" transform="translate(-101.936 -10.201)" fill="url(#a)"/><path d="M246.558,101.335a49.47,49.47,0,0,1-13.969,24c-8.148,7.871-21.175,14.744-31.54,19.955l-11.807-11.807,42.9-42.959a18,18,0,0,0,12.361,5.211Z" transform="translate(-154.285 -73.802)" fill="url(#a)"/><path d="M275.929,114.137A13.836,13.836,0,0,0,256.362,133.7v.055a13.856,13.856,0,1,0,19.567-19.623Z" transform="translate(-205.717 -89.765)" fill="#76e2f8"/><path d="M388.2,27.532c-.444,0-1.718-.055-2.162-.055a23.283,23.283,0,0,1-23-23c0-.444-.055-1.718-.055-2.162A86.614,86.614,0,0,1,387.753.094a2.649,2.649,0,0,1,2.661,2.661A88.669,88.669,0,0,1,388.2,27.532Z" transform="translate(-295.923 0)" fill="#ff9f00"/><path d="M231.762,259.667a2.744,2.744,0,1,1,0-3.88A2.679,2.679,0,0,1,231.762,259.667Z" transform="translate(-185.108 -207.855)" fill="#5a5a5a"/><path d="M418.528,31.375c-.444,0-1.718-.055-2.162-.055A23.252,23.252,0,0,1,400.181,24.5L419.97,4.713a2.641,2.641,0,0,1,.776,1.885A88.654,88.654,0,0,1,418.528,31.375Z" transform="translate(-326.255 -3.842)" fill="#ff7816"/><path d="M293.726,151.556a13.884,13.884,0,0,1-19.567,0V151.5l19.567-19.567A13.85,13.85,0,0,1,293.726,151.556Z" transform="translate(-223.514 -107.56)" fill="#25d9f8"/><path d="M235.431,263.335a2.679,2.679,0,0,1-3.88,0l3.88-3.88A2.679,2.679,0,0,1,235.431,263.335Z" transform="translate(-188.777 -211.524)" fill="#444"/></g><path d="M3009.66,3931.547a7.42,7.42,0,0,0,4.38,2.966c6.235-.017,13.867.885,15.265,2.329,2.1,2.165,9.657,11.27,9.657,11.27l4.168-3.183s-6.773-11.858-8.328-12.927-13.542-7.628-13.542-7.628Z" transform="translate(-2866.317 -3722.13)" fill="#1d1d1d"/><path d="M.073,7.53S-.816,3.541,3.6.852C5.766-.464,8.417.05,10.561.918L14.954,0,16.9,5.745l-.783.223,7.467,13.02L12,26.459Z" transform="translate(131.407 183.128)" fill="#ff7816"/><path d="M11.166,11.623s2.148-2.336,1.655-4.995S9.148,2.426,8.936,1.9A12.429,12.429,0,0,0,7.525,0L1.2,3.919s-2.981,1.232.447,4.751a41.652,41.652,0,0,0,6.788,5.636Z" transform="matrix(0.998, 0.07, -0.07, 0.998, 124.691, 169.21)" fill="#ffc7c7"/><path d="M6.5,6.095S9.361,4.122,9.443,3.729,9.546-.226,8.062.011,2.972,1.978,3.1,2.595.629,3.495.99,4.382s-.3,1.925-.3,2.756S-.5,8.613.243,9.408.8,12.347.99,12.634a12.654,12.654,0,0,0,.98,1.384A11.145,11.145,0,0,0,4.815,15.21c.789.24,3.745,1.7,3.745,1.7A8.6,8.6,0,0,0,7.8,13.3,14.251,14.251,0,0,0,5.21,9.852l1.807.411A13.459,13.459,0,0,0,7.162,8.11C7.064,7.85,6.5,6.095,6.5,6.095Z" transform="translate(123.882 164.601) rotate(7)" fill="#1d1d1d"/><path d="M0,9.58A10.078,10.078,0,0,0,2.572,8.7c.717-.49,7.4-8.7,7.4-8.7l2.35.905S4.817,12.182,3.96,12.491s-2.468.852-2.468.852Z" transform="matrix(0.999, 0.035, -0.035, 0.999, 146.734, 174.162)" fill="#ffc7c7"/><path d="M2993.416,3891.688l-2.095-2.663,3.114-2.693,2.25,3.643Z" transform="translate(-2860.174 -3706.302)" fill="#ffc7c7"/><path d="M219.385,262.8l1.2,1.419-2.305,1.787-1.02-1.546Z" transform="translate(-43.572 -39.314)" fill="#ffc7c7"/><path d="M219.743,263.188s5.266-2.11,6-1.657.412,1,.412,1l-7.663,5.331a13.5,13.5,0,0,1-1.972-1.85c-.493-.7,0-.939,0-.939a11.225,11.225,0,0,0,2.5-.753A1.656,1.656,0,0,0,219.743,263.188Z" transform="translate(-43.19 -38.781)" fill="#ff7816"/><path d="M220.028,268.421l.526.857,7.846-5.522-.646-.9Z" transform="translate(-44.682 -39.335)" fill="#fff"/><path d="M0,3.675S2.292.856,2.842.742,3.99.062,4.624,0s.155.505.155.505l-1.424.984s.6,1.223.3,1.749A8.663,8.663,0,0,1,2.187,4.718Z" transform="matrix(0.999, 0.035, -0.035, 0.999, 156.84, 170.895)" fill="#ffc7c7"/><path d="M147.862,200.292c1.6-1.6.185,3.265,2.984,7.131S157,220.62,157,220.62l-10.263-16.01S146.266,201.888,147.862,200.292Z" transform="translate(-15.314 -14.164)" fill="#fc6a00"/></g></g></svg>